<?xml version="1.0" encoding="UTF-8" standalone="no"?>
<!DOCTYPE svg PUBLIC "-//W3C//DTD SVG 1.1//EN" "http://www.w3.org/Graphics/SVG/1.1/DTD/svg11.dtd">
<svg width="100%" height="100%" viewBox="0 0 79 122" version="1.1" xmlns="http://www.w3.org/2000/svg" xmlns:xlink="http://www.w3.org/1999/xlink" xml:space="preserve" xmlns:serif="http://www.serif.com/" style="fill-rule:evenodd;clip-rule:evenodd;stroke-linejoin:round;stroke-miterlimit:2;">
    <g transform="matrix(1,0,0,1,-832.069,-619.064)">
        <g id="_--IDML-" serif:id=" [IDML]" transform="matrix(4.16667,0,0,4.16667,-21480.7,-15573.8)">
            <path d="M5365.37,3891.96C5365.37,3892.09 5365.26,3892.21 5365.12,3892.21L5362.07,3892.21L5362.07,3894.33L5364.67,3894.33C5364.81,3894.33 5364.92,3894.45 5364.92,3894.59L5364.92,3894.84C5364.92,3894.98 5364.81,3895.09 5364.67,3895.09L5362.07,3895.09L5362.07,3897.82C5362.07,3897.95 5361.96,3898.07 5361.82,3898.07L5361.44,3898.07C5361.31,3898.07 5361.19,3897.95 5361.19,3897.82L5361.19,3891.7C5361.19,3891.56 5361.31,3891.45 5361.44,3891.45L5365.12,3891.45C5365.26,3891.45 5365.37,3891.56 5365.37,3891.7L5365.37,3891.96ZM5361.22,3904.01C5361.22,3903.87 5361.33,3903.76 5361.47,3903.76L5361.85,3903.76C5361.99,3903.76 5362.1,3903.87 5362.1,3904.01L5362.1,3906.72L5364.48,3906.72L5364.48,3904.01C5364.48,3903.87 5364.6,3903.76 5364.73,3903.76L5365.12,3903.76C5365.25,3903.76 5365.37,3903.87 5365.37,3904.01L5365.37,3910.13C5365.37,3910.26 5365.25,3910.38 5365.12,3910.38L5364.73,3910.38C5364.6,3910.38 5364.48,3910.26 5364.48,3910.13L5364.48,3907.5L5362.1,3907.5L5362.1,3910.13C5362.1,3910.26 5361.99,3910.38 5361.85,3910.38L5361.47,3910.38C5361.33,3910.38 5361.22,3910.26 5361.22,3910.13L5361.22,3904.01ZM5372.79,3893.92C5372.79,3889.7 5369.37,3886.29 5365.16,3886.29L5356.13,3886.29C5355.54,3886.29 5355.07,3886.76 5355.07,3887.35L5355.07,3914.5C5355.07,3915.08 5355.54,3915.56 5356.13,3915.56L5366.21,3915.56C5370.43,3915.56 5373.85,3912.14 5373.85,3907.93C5373.85,3904.66 5372.12,3901.85 5369.36,3900.78C5369.36,3900.78 5369.28,3900.75 5369.28,3900.66C5369.28,3900.61 5369.31,3900.57 5369.36,3900.54C5371.48,3899.21 5372.79,3896.75 5372.79,3893.92" style="fill:rgb(39,25,148);fill-rule:nonzero;"/>
        </g>
    </g>
</svg>
