<?xml version="1.0" encoding="UTF-8" standalone="no"?>
<!DOCTYPE svg PUBLIC "-//W3C//DTD SVG 1.1//EN" "http://www.w3.org/Graphics/SVG/1.1/DTD/svg11.dtd">
<svg width="100%" height="100%" viewBox="0 0 325 36" version="1.1" xmlns="http://www.w3.org/2000/svg" xmlns:xlink="http://www.w3.org/1999/xlink" xml:space="preserve" xmlns:serif="http://www.serif.com/" style="fill-rule:evenodd;clip-rule:evenodd;stroke-linejoin:round;stroke-miterlimit:2;">
    <g transform="matrix(1,0,0,1,-276.753,-620.064)">
        <g transform="matrix(1.33333,0,0,1.33333,0,0)">
            <g id="_--IDML-" serif:id=" [IDML]" transform="matrix(1,0,0,1,224.565,297.584)">
                <g id="_--IDML-1" serif:id=" [IDML]" transform="matrix(1,0,0,1,-108.625,32.9928)">
                    <g id="_--IDML-2" serif:id=" [IDML]" transform="matrix(1,0,0,1,87.336,132.288)">
                        <path d="M26.196,2.426L22.112,2.426L22.112,9.692L8.374,9.692L8.374,2.426L4.29,2.426L4.29,13.401L26.196,13.401L26.196,2.426Z" style="fill:rgb(39,25,148);fill-rule:nonzero;"/>
                    </g>
                    <g id="_--IDML-3" serif:id=" [IDML]" transform="matrix(1,0,0,1,87.336,132.288)">
                        <path d="M95.5,7.911C95.5,4.582 93.305,2.426 89.484,2.426L72.87,2.426L72.87,13.401L89.48,13.401C93.305,13.401 95.5,11.241 95.5,7.911ZM76.958,9.692L76.958,6.135L89.295,6.135C90.545,6.135 91.412,6.704 91.412,7.911C91.412,9.119 90.541,9.688 89.295,9.688L76.958,9.692Z" style="fill:rgb(39,25,148);fill-rule:nonzero;"/>
                    </g>
                    <g id="_--IDML-4" serif:id=" [IDML]" transform="matrix(1,0,0,1,87.336,132.288)">
                        <path d="M8.374,21.495L22.112,21.495L22.112,28.761L26.196,28.761L26.196,17.787L4.29,17.787L4.29,28.761L8.374,28.761L8.374,21.495Z" style="fill:rgb(39,25,148);fill-rule:nonzero;"/>
                    </g>
                    <g id="_--IDML-5" serif:id=" [IDML]" transform="matrix(1,0,0,1,87.336,132.288)">
                        <path d="M43.453,21.797L56.96,28.761L65.17,28.761L43.453,17.787L39.366,17.787L39.366,28.761L43.453,28.761L43.453,21.797Z" style="fill:rgb(39,25,148);fill-rule:nonzero;"/>
                    </g>
                    <g id="_--IDML-6" serif:id=" [IDML]" transform="matrix(1,0,0,1,87.336,132.288)">
                        <path d="M95.5,23.276C95.5,19.947 93.305,17.79 89.484,17.79L72.87,17.79L72.87,28.765L89.48,28.765C93.305,28.761 95.5,26.605 95.5,23.276ZM89.295,25.053L76.958,25.053L76.958,21.495L89.295,21.495C90.545,21.495 91.412,22.064 91.412,23.272C91.412,24.484 90.541,25.053 89.295,25.053Z" style="fill:rgb(39,25,148);fill-rule:nonzero;"/>
                    </g>
                    <g id="_--IDML-7" serif:id=" [IDML]" transform="matrix(1,0,0,1,87.336,132.288)">
                        <path d="M65.17,2.426L56.96,2.426L43.453,9.386L43.453,2.426L39.366,2.426L39.366,13.401L43.453,13.401L65.17,2.426Z" style="fill:rgb(39,25,148);fill-rule:nonzero;"/>
                    </g>
                </g>
                <g id="_--IDML-8" serif:id=" [IDML]" transform="matrix(1,0,0,1,192.758,270.893)">
                    <g transform="matrix(9.59529,0,0,9.59529,-100.313,-96.7511)">
                        <path d="M0.579,-0.696L0.579,-0.393L0.194,-0.393L0.194,-0.696L0.092,-0.696L0.092,-0L0.194,-0L0.194,-0.303L0.579,-0.303L0.579,-0L0.681,-0L0.681,-0.696L0.579,-0.696Z" style="fill:rgb(39,25,148);fill-rule:nonzero;"/>
                    </g>
                    <g transform="matrix(9.59529,0,0,9.59529,-92.9054,-96.7511)">
                        <path d="M0.317,-0.537C0.158,-0.537 0.041,-0.432 0.041,-0.261C0.041,-0.09 0.158,0.015 0.317,0.015C0.476,0.015 0.594,-0.09 0.594,-0.261C0.594,-0.432 0.476,-0.537 0.317,-0.537ZM0.317,-0.454C0.428,-0.454 0.493,-0.377 0.493,-0.261C0.493,-0.145 0.428,-0.068 0.317,-0.068C0.207,-0.068 0.141,-0.145 0.141,-0.261C0.141,-0.377 0.207,-0.454 0.317,-0.454Z" style="fill:rgb(39,25,148);fill-rule:nonzero;"/>
                    </g>
                    <g transform="matrix(9.59529,0,0,9.59529,-86.8124,-96.7511)">
                        <path d="M0.314,0.015C0.451,0.015 0.538,-0.054 0.552,-0.174L0.45,-0.174C0.438,-0.108 0.386,-0.069 0.313,-0.069C0.206,-0.069 0.141,-0.14 0.141,-0.261C0.141,-0.383 0.206,-0.453 0.313,-0.453C0.386,-0.453 0.438,-0.414 0.45,-0.348L0.552,-0.348C0.538,-0.468 0.451,-0.537 0.314,-0.537C0.15,-0.537 0.041,-0.428 0.041,-0.261C0.041,-0.094 0.15,0.015 0.314,0.015Z" style="fill:rgb(39,25,148);fill-rule:nonzero;"/>
                    </g>
                    <g transform="matrix(9.59529,0,0,9.59529,-81.084,-96.7511)">
                        <path d="M0.343,-0.537C0.266,-0.537 0.199,-0.501 0.176,-0.433L0.176,-0.696L0.081,-0.696L0.081,-0L0.176,-0L0.176,-0.293C0.176,-0.393 0.228,-0.45 0.319,-0.45C0.405,-0.45 0.451,-0.405 0.451,-0.313L0.451,-0L0.546,-0L0.546,-0.323C0.546,-0.466 0.472,-0.537 0.343,-0.537Z" style="fill:rgb(39,25,148);fill-rule:nonzero;"/>
                    </g>
                    <g transform="matrix(9.59529,0,0,9.59529,-75.1637,-96.7511)">
                        <path d="M0.288,0.015C0.417,0.015 0.497,-0.045 0.497,-0.141C0.497,-0.233 0.446,-0.272 0.329,-0.295L0.254,-0.31C0.187,-0.323 0.154,-0.339 0.154,-0.382C0.154,-0.43 0.193,-0.456 0.268,-0.456C0.362,-0.456 0.393,-0.417 0.402,-0.348L0.505,-0.348C0.498,-0.479 0.412,-0.537 0.269,-0.537C0.139,-0.537 0.06,-0.477 0.06,-0.381C0.06,-0.289 0.111,-0.25 0.227,-0.227L0.303,-0.212C0.369,-0.199 0.402,-0.183 0.402,-0.14C0.402,-0.092 0.363,-0.066 0.289,-0.066C0.194,-0.066 0.163,-0.105 0.156,-0.174L0.051,-0.174C0.058,-0.043 0.145,0.015 0.288,0.015Z" style="fill:rgb(39,25,148);fill-rule:nonzero;"/>
                    </g>
                    <g transform="matrix(9.59529,0,0,9.59529,-69.8287,-96.7511)">
                        <path d="M0.314,0.015C0.451,0.015 0.538,-0.054 0.552,-0.174L0.45,-0.174C0.438,-0.108 0.386,-0.069 0.313,-0.069C0.206,-0.069 0.141,-0.14 0.141,-0.261C0.141,-0.383 0.206,-0.453 0.313,-0.453C0.386,-0.453 0.438,-0.414 0.45,-0.348L0.552,-0.348C0.538,-0.468 0.451,-0.537 0.314,-0.537C0.15,-0.537 0.041,-0.428 0.041,-0.261C0.041,-0.094 0.15,0.015 0.314,0.015Z" style="fill:rgb(39,25,148);fill-rule:nonzero;"/>
                    </g>
                    <g transform="matrix(9.59529,0,0,9.59529,-64.1003,-96.7511)">
                        <path d="M0.343,-0.537C0.266,-0.537 0.199,-0.501 0.176,-0.433L0.176,-0.696L0.081,-0.696L0.081,-0L0.176,-0L0.176,-0.293C0.176,-0.393 0.228,-0.45 0.319,-0.45C0.405,-0.45 0.451,-0.405 0.451,-0.313L0.451,-0L0.546,-0L0.546,-0.323C0.546,-0.466 0.472,-0.537 0.343,-0.537Z" style="fill:rgb(39,25,148);fill-rule:nonzero;"/>
                    </g>
                    <g transform="matrix(9.59529,0,0,9.59529,-58.18,-96.7511)">
                        <path d="M0.269,0.015C0.345,0.015 0.41,-0.021 0.433,-0.089L0.433,-0L0.528,-0L0.528,-0.522L0.433,-0.522L0.433,-0.229C0.433,-0.129 0.382,-0.072 0.293,-0.072C0.21,-0.072 0.166,-0.117 0.166,-0.209L0.166,-0.522L0.071,-0.522L0.071,-0.199C0.071,-0.056 0.143,0.015 0.269,0.015Z" style="fill:rgb(39,25,148);fill-rule:nonzero;"/>
                    </g>
                    <g transform="matrix(9.59529,0,0,9.59529,-52.3365,-96.7511)">
                        <rect x="0.081" y="-0.696" width="0.095" height="0.696" style="fill:rgb(39,25,148);fill-rule:nonzero;"/>
                    </g>
                    <g transform="matrix(9.59529,0,0,9.59529,-49.8705,-96.7511)">
                        <path d="M0.556,-0.282C0.556,-0.436 0.464,-0.537 0.304,-0.537C0.151,-0.537 0.041,-0.431 0.041,-0.261C0.041,-0.092 0.137,0.015 0.312,0.015C0.451,0.015 0.536,-0.062 0.548,-0.174L0.444,-0.174C0.443,-0.118 0.39,-0.068 0.303,-0.068C0.211,-0.068 0.145,-0.132 0.141,-0.234L0.554,-0.234C0.556,-0.25 0.556,-0.266 0.556,-0.282ZM0.143,-0.312C0.155,-0.403 0.219,-0.455 0.305,-0.455C0.403,-0.455 0.458,-0.404 0.458,-0.312L0.143,-0.312Z" style="fill:rgb(39,25,148);fill-rule:nonzero;"/>
                    </g>
                    <g transform="matrix(9.59529,0,0,9.59529,-41.6378,-96.7511)">
                        <path d="M0.481,-0.696L0.481,-0.427C0.447,-0.501 0.376,-0.537 0.29,-0.537C0.141,-0.537 0.041,-0.427 0.041,-0.261C0.041,-0.095 0.141,0.015 0.29,0.015C0.376,0.015 0.447,-0.021 0.481,-0.095L0.481,-0L0.575,-0L0.575,-0.696L0.481,-0.696ZM0.313,-0.072C0.206,-0.072 0.141,-0.143 0.141,-0.261C0.141,-0.379 0.206,-0.45 0.313,-0.45C0.417,-0.45 0.48,-0.378 0.48,-0.261C0.48,-0.144 0.417,-0.072 0.313,-0.072Z" style="fill:rgb(39,25,148);fill-rule:nonzero;"/>
                    </g>
                    <g transform="matrix(9.59529,0,0,9.59529,-35.3336,-96.7511)">
                        <path d="M0.556,-0.282C0.556,-0.436 0.464,-0.537 0.304,-0.537C0.151,-0.537 0.041,-0.431 0.041,-0.261C0.041,-0.092 0.137,0.015 0.312,0.015C0.451,0.015 0.536,-0.062 0.548,-0.174L0.444,-0.174C0.443,-0.118 0.39,-0.068 0.303,-0.068C0.211,-0.068 0.145,-0.132 0.141,-0.234L0.554,-0.234C0.556,-0.25 0.556,-0.266 0.556,-0.282ZM0.143,-0.312C0.155,-0.403 0.219,-0.455 0.305,-0.455C0.403,-0.455 0.458,-0.404 0.458,-0.312L0.143,-0.312Z" style="fill:rgb(39,25,148);fill-rule:nonzero;"/>
                    </g>
                    <g transform="matrix(9.59529,0,0,9.59529,-29.6053,-96.7511)">
                        <path d="M0.285,-0.522C0.228,-0.522 0.187,-0.498 0.176,-0.452L0.176,-0.522L0.081,-0.522L0.081,-0L0.176,-0L0.176,-0.348C0.176,-0.405 0.197,-0.439 0.253,-0.439L0.383,-0.439L0.383,-0.522L0.285,-0.522Z" style="fill:rgb(39,25,148);fill-rule:nonzero;"/>
                    </g>
                    <g transform="matrix(9.59529,0,0,9.59529,-23.3203,-96.7511)">
                        <path d="M0.647,-0L0.289,-0.35L0.643,-0.696L0.502,-0.696L0.194,-0.391L0.194,-0.696L0.092,-0.696L0.092,-0L0.194,-0L0.194,-0.305L0.501,-0L0.647,-0Z" style="fill:rgb(39,25,148);fill-rule:nonzero;"/>
                    </g>
                    <g transform="matrix(9.59529,0,0,9.59529,-17.2561,-96.7511)">
                        <path d="M0.153,-0.58L0.248,-0.58L0.248,-0.696L0.153,-0.696L0.153,-0.58ZM0.362,-0.58L0.456,-0.58L0.456,-0.696L0.362,-0.696L0.362,-0.58ZM0.269,0.015C0.345,0.015 0.41,-0.021 0.433,-0.089L0.433,-0L0.528,-0L0.528,-0.522L0.433,-0.522L0.433,-0.229C0.433,-0.129 0.382,-0.072 0.293,-0.072C0.21,-0.072 0.166,-0.117 0.166,-0.209L0.166,-0.522L0.071,-0.522L0.071,-0.199C0.071,-0.056 0.143,0.015 0.269,0.015Z" style="fill:rgb(39,25,148);fill-rule:nonzero;"/>
                    </g>
                    <g transform="matrix(9.59529,0,0,9.59529,-11.4126,-96.7511)">
                        <path d="M0.081,-0L0.176,-0L0.176,-0.293C0.176,-0.393 0.228,-0.45 0.319,-0.45C0.405,-0.45 0.451,-0.405 0.451,-0.313L0.451,-0L0.546,-0L0.546,-0.323C0.546,-0.466 0.472,-0.537 0.343,-0.537C0.266,-0.537 0.199,-0.501 0.176,-0.433L0.176,-0.522L0.081,-0.522L0.081,-0Z" style="fill:rgb(39,25,148);fill-rule:nonzero;"/>
                    </g>
                    <g transform="matrix(9.59529,0,0,9.59529,-5.49229,-96.7511)">
                        <path d="M0.288,0.015C0.417,0.015 0.497,-0.045 0.497,-0.141C0.497,-0.233 0.446,-0.272 0.329,-0.295L0.254,-0.31C0.187,-0.323 0.154,-0.339 0.154,-0.382C0.154,-0.43 0.193,-0.456 0.268,-0.456C0.362,-0.456 0.393,-0.417 0.402,-0.348L0.505,-0.348C0.498,-0.479 0.412,-0.537 0.269,-0.537C0.139,-0.537 0.06,-0.477 0.06,-0.381C0.06,-0.289 0.111,-0.25 0.227,-0.227L0.303,-0.212C0.369,-0.199 0.402,-0.183 0.402,-0.14C0.402,-0.092 0.363,-0.066 0.289,-0.066C0.194,-0.066 0.163,-0.105 0.156,-0.174L0.051,-0.174C0.058,-0.043 0.145,0.015 0.288,0.015Z" style="fill:rgb(39,25,148);fill-rule:nonzero;"/>
                    </g>
                    <g transform="matrix(9.59529,0,0,9.59529,-0.253266,-96.7511)">
                        <path d="M0.388,-0.439L0.388,-0.522L0.229,-0.522L0.229,-0.696L0.134,-0.696L0.134,-0.522L0.01,-0.522L0.01,-0.439L0.134,-0.439L0.134,-0.152C0.134,-0.044 0.174,-0 0.283,-0L0.388,-0L0.388,-0.083L0.291,-0.083C0.245,-0.083 0.229,-0.104 0.229,-0.149L0.229,-0.439L0.388,-0.439Z" style="fill:rgb(39,25,148);fill-rule:nonzero;"/>
                    </g>
                    <g transform="matrix(9.59529,0,0,9.59529,3.61364,-96.7511)">
                        <path d="M0.556,-0.282C0.556,-0.436 0.464,-0.537 0.304,-0.537C0.151,-0.537 0.041,-0.431 0.041,-0.261C0.041,-0.092 0.137,0.015 0.312,0.015C0.451,0.015 0.536,-0.062 0.548,-0.174L0.444,-0.174C0.443,-0.118 0.39,-0.068 0.303,-0.068C0.211,-0.068 0.145,-0.132 0.141,-0.234L0.554,-0.234C0.556,-0.25 0.556,-0.266 0.556,-0.282ZM0.143,-0.312C0.155,-0.403 0.219,-0.455 0.305,-0.455C0.403,-0.455 0.458,-0.404 0.458,-0.312L0.143,-0.312Z" style="fill:rgb(39,25,148);fill-rule:nonzero;"/>
                    </g>
                    <g transform="matrix(9.59529,0,0,9.59529,11.8464,-96.7511)">
                        <path d="M0.501,-0.348C0.583,-0.356 0.639,-0.409 0.639,-0.511C0.639,-0.621 0.554,-0.696 0.42,-0.696L0.092,-0.696L0.092,-0L0.42,-0C0.554,-0 0.639,-0.075 0.639,-0.185C0.639,-0.287 0.583,-0.34 0.501,-0.348ZM0.419,-0.605C0.491,-0.605 0.534,-0.567 0.534,-0.499C0.534,-0.434 0.491,-0.393 0.423,-0.393L0.194,-0.393L0.194,-0.605L0.419,-0.605ZM0.419,-0.091L0.194,-0.091L0.194,-0.303L0.423,-0.303C0.491,-0.303 0.534,-0.262 0.534,-0.197C0.534,-0.129 0.491,-0.091 0.419,-0.091Z" style="fill:rgb(39,25,148);fill-rule:nonzero;"/>
                    </g>
                    <g transform="matrix(9.59529,0,0,9.59529,18.6495,-96.7511)">
                        <path d="M0.556,-0.282C0.556,-0.436 0.464,-0.537 0.304,-0.537C0.151,-0.537 0.041,-0.431 0.041,-0.261C0.041,-0.092 0.137,0.015 0.312,0.015C0.451,0.015 0.536,-0.062 0.548,-0.174L0.444,-0.174C0.443,-0.118 0.39,-0.068 0.303,-0.068C0.211,-0.068 0.145,-0.132 0.141,-0.234L0.554,-0.234C0.556,-0.25 0.556,-0.266 0.556,-0.282ZM0.143,-0.312C0.155,-0.403 0.219,-0.455 0.305,-0.455C0.403,-0.455 0.458,-0.404 0.458,-0.312L0.143,-0.312Z" style="fill:rgb(39,25,148);fill-rule:nonzero;"/>
                    </g>
                    <g transform="matrix(9.59529,0,0,9.59529,24.3778,-96.7511)">
                        <path d="M0.285,-0.522C0.228,-0.522 0.187,-0.498 0.176,-0.452L0.176,-0.522L0.081,-0.522L0.081,-0L0.176,-0L0.176,-0.348C0.176,-0.405 0.197,-0.439 0.253,-0.439L0.383,-0.439L0.383,-0.522L0.285,-0.522Z" style="fill:rgb(39,25,148);fill-rule:nonzero;"/>
                    </g>
                    <g transform="matrix(9.59529,0,0,9.59529,28.1584,-96.7511)">
                        <path d="M0.081,-0L0.176,-0L0.176,-0.293C0.176,-0.393 0.228,-0.45 0.319,-0.45C0.405,-0.45 0.451,-0.405 0.451,-0.313L0.451,-0L0.546,-0L0.546,-0.323C0.546,-0.466 0.472,-0.537 0.343,-0.537C0.266,-0.537 0.199,-0.501 0.176,-0.433L0.176,-0.522L0.081,-0.522L0.081,-0Z" style="fill:rgb(39,25,148);fill-rule:nonzero;"/>
                    </g>
                    <g transform="matrix(9.59529,0,0,9.59529,-100.313,-87.43)">
                        <path d="M0.501,-0.348C0.583,-0.356 0.639,-0.409 0.639,-0.511C0.639,-0.621 0.554,-0.696 0.42,-0.696L0.092,-0.696L0.092,-0L0.42,-0C0.554,-0 0.639,-0.075 0.639,-0.185C0.639,-0.287 0.583,-0.34 0.501,-0.348ZM0.419,-0.605C0.491,-0.605 0.534,-0.567 0.534,-0.499C0.534,-0.434 0.491,-0.393 0.423,-0.393L0.194,-0.393L0.194,-0.605L0.419,-0.605ZM0.419,-0.091L0.194,-0.091L0.194,-0.303L0.423,-0.303C0.491,-0.303 0.534,-0.262 0.534,-0.197C0.534,-0.129 0.491,-0.091 0.419,-0.091Z" style="fill:rgb(39,25,148);fill-rule:nonzero;"/>
                    </g>
                    <g transform="matrix(9.59529,0,0,9.59529,-93.5099,-87.43)">
                        <path d="M0.556,-0.282C0.556,-0.436 0.464,-0.537 0.304,-0.537C0.151,-0.537 0.041,-0.431 0.041,-0.261C0.041,-0.092 0.137,0.015 0.312,0.015C0.451,0.015 0.536,-0.062 0.548,-0.174L0.444,-0.174C0.443,-0.118 0.39,-0.068 0.303,-0.068C0.211,-0.068 0.145,-0.132 0.141,-0.234L0.554,-0.234C0.556,-0.25 0.556,-0.266 0.556,-0.282ZM0.143,-0.312C0.155,-0.403 0.219,-0.455 0.305,-0.455C0.403,-0.455 0.458,-0.404 0.458,-0.312L0.143,-0.312Z" style="fill:rgb(39,25,148);fill-rule:nonzero;"/>
                    </g>
                    <g transform="matrix(9.59529,0,0,9.59529,-87.7815,-87.43)">
                        <path d="M0.285,-0.522C0.228,-0.522 0.187,-0.498 0.176,-0.452L0.176,-0.522L0.081,-0.522L0.081,-0L0.176,-0L0.176,-0.348C0.176,-0.405 0.197,-0.439 0.253,-0.439L0.383,-0.439L0.383,-0.522L0.285,-0.522Z" style="fill:rgb(39,25,148);fill-rule:nonzero;"/>
                    </g>
                    <g transform="matrix(9.59529,0,0,9.59529,-84.001,-87.43)">
                        <path d="M0.081,-0L0.176,-0L0.176,-0.293C0.176,-0.393 0.228,-0.45 0.319,-0.45C0.405,-0.45 0.451,-0.405 0.451,-0.313L0.451,-0L0.546,-0L0.546,-0.323C0.546,-0.466 0.472,-0.537 0.343,-0.537C0.266,-0.537 0.199,-0.501 0.176,-0.433L0.176,-0.522L0.081,-0.522L0.081,-0Z" style="fill:rgb(39,25,148);fill-rule:nonzero;"/>
                    </g>
                    <g transform="matrix(9.59529,0,0,9.59529,-75.5763,-87.43)">
                        <path d="M0.373,0.015C0.581,0.015 0.659,-0.115 0.659,-0.262L0.659,-0.696L0.554,-0.696L0.554,-0.277C0.554,-0.166 0.51,-0.081 0.373,-0.081C0.235,-0.081 0.192,-0.166 0.192,-0.277L0.192,-0.696L0.087,-0.696L0.087,-0.262C0.087,-0.115 0.164,0.015 0.373,0.015Z" style="fill:rgb(39,25,148);fill-rule:nonzero;"/>
                    </g>
                    <g transform="matrix(9.59529,0,0,9.59529,-68.4182,-87.43)">
                        <path d="M0.081,-0L0.176,-0L0.176,-0.293C0.176,-0.393 0.228,-0.45 0.319,-0.45C0.405,-0.45 0.451,-0.405 0.451,-0.313L0.451,-0L0.546,-0L0.546,-0.323C0.546,-0.466 0.472,-0.537 0.343,-0.537C0.266,-0.537 0.199,-0.501 0.176,-0.433L0.176,-0.522L0.081,-0.522L0.081,-0Z" style="fill:rgb(39,25,148);fill-rule:nonzero;"/>
                    </g>
                    <g transform="matrix(9.59529,0,0,9.59529,-62.4979,-87.43)">
                        <path d="M0.077,-0.58L0.182,-0.58L0.182,-0.696L0.077,-0.696L0.077,-0.58ZM0.081,-0L0.176,-0L0.176,-0.522L0.081,-0.522L0.081,-0Z" style="fill:rgb(39,25,148);fill-rule:nonzero;"/>
                    </g>
                    <g transform="matrix(9.59529,0,0,9.59529,-60.0319,-87.43)">
                        <path d="M0.43,-0.522L0.274,-0.053L0.127,-0.522L0.015,-0.522L0.197,-0L0.35,-0L0.541,-0.522L0.43,-0.522Z" style="fill:rgb(39,25,148);fill-rule:nonzero;"/>
                    </g>
                    <g transform="matrix(9.59529,0,0,9.59529,-54.7929,-87.43)">
                        <path d="M0.556,-0.282C0.556,-0.436 0.464,-0.537 0.304,-0.537C0.151,-0.537 0.041,-0.431 0.041,-0.261C0.041,-0.092 0.137,0.015 0.312,0.015C0.451,0.015 0.536,-0.062 0.548,-0.174L0.444,-0.174C0.443,-0.118 0.39,-0.068 0.303,-0.068C0.211,-0.068 0.145,-0.132 0.141,-0.234L0.554,-0.234C0.556,-0.25 0.556,-0.266 0.556,-0.282ZM0.143,-0.312C0.155,-0.403 0.219,-0.455 0.305,-0.455C0.403,-0.455 0.458,-0.404 0.458,-0.312L0.143,-0.312Z" style="fill:rgb(39,25,148);fill-rule:nonzero;"/>
                    </g>
                    <g transform="matrix(9.59529,0,0,9.59529,-49.0645,-87.43)">
                        <path d="M0.285,-0.522C0.228,-0.522 0.187,-0.498 0.176,-0.452L0.176,-0.522L0.081,-0.522L0.081,-0L0.176,-0L0.176,-0.348C0.176,-0.405 0.197,-0.439 0.253,-0.439L0.383,-0.439L0.383,-0.522L0.285,-0.522Z" style="fill:rgb(39,25,148);fill-rule:nonzero;"/>
                    </g>
                    <g transform="matrix(9.59529,0,0,9.59529,-45.284,-87.43)">
                        <path d="M0.288,0.015C0.417,0.015 0.497,-0.045 0.497,-0.141C0.497,-0.233 0.446,-0.272 0.329,-0.295L0.254,-0.31C0.187,-0.323 0.154,-0.339 0.154,-0.382C0.154,-0.43 0.193,-0.456 0.268,-0.456C0.362,-0.456 0.393,-0.417 0.402,-0.348L0.505,-0.348C0.498,-0.479 0.412,-0.537 0.269,-0.537C0.139,-0.537 0.06,-0.477 0.06,-0.381C0.06,-0.289 0.111,-0.25 0.227,-0.227L0.303,-0.212C0.369,-0.199 0.402,-0.183 0.402,-0.14C0.402,-0.092 0.363,-0.066 0.289,-0.066C0.194,-0.066 0.163,-0.105 0.156,-0.174L0.051,-0.174C0.058,-0.043 0.145,0.015 0.288,0.015Z" style="fill:rgb(39,25,148);fill-rule:nonzero;"/>
                    </g>
                    <g transform="matrix(9.59529,0,0,9.59529,-39.949,-87.43)">
                        <path d="M0.077,-0.58L0.182,-0.58L0.182,-0.696L0.077,-0.696L0.077,-0.58ZM0.081,-0L0.176,-0L0.176,-0.522L0.081,-0.522L0.081,-0Z" style="fill:rgb(39,25,148);fill-rule:nonzero;"/>
                    </g>
                    <g transform="matrix(9.59529,0,0,9.59529,-37.483,-87.43)">
                        <path d="M0.388,-0.439L0.388,-0.522L0.229,-0.522L0.229,-0.696L0.134,-0.696L0.134,-0.522L0.01,-0.522L0.01,-0.439L0.134,-0.439L0.134,-0.152C0.134,-0.044 0.174,-0 0.283,-0L0.388,-0L0.388,-0.083L0.291,-0.083C0.245,-0.083 0.229,-0.104 0.229,-0.149L0.229,-0.439L0.388,-0.439Z" style="fill:rgb(39,25,148);fill-rule:nonzero;"/>
                    </g>
                    <g transform="matrix(9.59529,0,0,9.59529,-33.4722,-87.43)">
                        <path d="M0.423,-0.522L0.275,-0.08L0.12,-0.522L0.015,-0.522L0.206,-0L0.248,-0L0.234,0.043C0.222,0.08 0.206,0.091 0.173,0.091L0.092,0.091L0.092,0.174L0.191,0.174C0.26,0.174 0.295,0.143 0.315,0.084L0.525,-0.522L0.423,-0.522Z" style="fill:rgb(39,25,148);fill-rule:nonzero;"/>
                    </g>
                    <g transform="matrix(9.59529,0,0,9.59529,-25.7863,-87.43)">
                        <path d="M0.317,-0.537C0.158,-0.537 0.041,-0.432 0.041,-0.261C0.041,-0.09 0.158,0.015 0.317,0.015C0.476,0.015 0.594,-0.09 0.594,-0.261C0.594,-0.432 0.476,-0.537 0.317,-0.537ZM0.317,-0.454C0.428,-0.454 0.493,-0.377 0.493,-0.261C0.493,-0.145 0.428,-0.068 0.317,-0.068C0.207,-0.068 0.141,-0.145 0.141,-0.261C0.141,-0.377 0.207,-0.454 0.317,-0.454Z" style="fill:rgb(39,25,148);fill-rule:nonzero;"/>
                    </g>
                    <g transform="matrix(9.59529,0,0,9.59529,-19.7893,-87.43)">
                        <path d="M0.304,-0.628L0.42,-0.628L0.42,-0.711L0.296,-0.711C0.197,-0.711 0.147,-0.657 0.147,-0.559L0.147,-0.522L0.01,-0.522L0.01,-0.439L0.147,-0.439L0.147,-0L0.241,-0L0.241,-0.439L0.42,-0.439L0.42,-0.522L0.241,-0.522L0.241,-0.562C0.241,-0.607 0.259,-0.628 0.304,-0.628Z" style="fill:rgb(39,25,148);fill-rule:nonzero;"/>
                    </g>
                    <g transform="matrix(9.59529,0,0,9.59529,-13.063,-87.43)">
                        <path d="M0.388,-0.439L0.388,-0.522L0.229,-0.522L0.229,-0.696L0.134,-0.696L0.134,-0.522L0.01,-0.522L0.01,-0.439L0.134,-0.439L0.134,-0.152C0.134,-0.044 0.174,-0 0.283,-0L0.388,-0L0.388,-0.083L0.291,-0.083C0.245,-0.083 0.229,-0.104 0.229,-0.149L0.229,-0.439L0.388,-0.439Z" style="fill:rgb(39,25,148);fill-rule:nonzero;"/>
                    </g>
                    <g transform="matrix(9.59529,0,0,9.59529,-9.05215,-87.43)">
                        <path d="M0.343,-0.537C0.266,-0.537 0.199,-0.501 0.176,-0.433L0.176,-0.696L0.081,-0.696L0.081,-0L0.176,-0L0.176,-0.293C0.176,-0.393 0.228,-0.45 0.319,-0.45C0.405,-0.45 0.451,-0.405 0.451,-0.313L0.451,-0L0.546,-0L0.546,-0.323C0.546,-0.466 0.472,-0.537 0.343,-0.537Z" style="fill:rgb(39,25,148);fill-rule:nonzero;"/>
                    </g>
                    <g transform="matrix(9.59529,0,0,9.59529,-3.13185,-87.43)">
                        <path d="M0.556,-0.282C0.556,-0.436 0.464,-0.537 0.304,-0.537C0.151,-0.537 0.041,-0.431 0.041,-0.261C0.041,-0.092 0.137,0.015 0.312,0.015C0.451,0.015 0.536,-0.062 0.548,-0.174L0.444,-0.174C0.443,-0.118 0.39,-0.068 0.303,-0.068C0.211,-0.068 0.145,-0.132 0.141,-0.234L0.554,-0.234C0.556,-0.25 0.556,-0.266 0.556,-0.282ZM0.143,-0.312C0.155,-0.403 0.219,-0.455 0.305,-0.455C0.403,-0.455 0.458,-0.404 0.458,-0.312L0.143,-0.312Z" style="fill:rgb(39,25,148);fill-rule:nonzero;"/>
                    </g>
                    <g transform="matrix(9.59529,0,0,9.59529,5.10091,-87.43)">
                        <path d="M0.582,-0L0.689,-0L0.447,-0.696L0.262,-0.696L0.02,-0L0.127,-0L0.19,-0.181L0.519,-0.181L0.582,-0ZM0.221,-0.272L0.354,-0.656L0.487,-0.272L0.221,-0.272Z" style="fill:rgb(39,25,148);fill-rule:nonzero;"/>
                    </g>
                    <g transform="matrix(9.59529,0,0,9.59529,11.904,-87.43)">
                        <path d="M0.285,-0.522C0.228,-0.522 0.187,-0.498 0.176,-0.452L0.176,-0.522L0.081,-0.522L0.081,-0L0.176,-0L0.176,-0.348C0.176,-0.405 0.197,-0.439 0.253,-0.439L0.383,-0.439L0.383,-0.522L0.285,-0.522Z" style="fill:rgb(39,25,148);fill-rule:nonzero;"/>
                    </g>
                    <g transform="matrix(9.59529,0,0,9.59529,15.9724,-87.43)">
                        <path d="M0.388,-0.439L0.388,-0.522L0.229,-0.522L0.229,-0.696L0.134,-0.696L0.134,-0.522L0.01,-0.522L0.01,-0.439L0.134,-0.439L0.134,-0.152C0.134,-0.044 0.174,-0 0.283,-0L0.388,-0L0.388,-0.083L0.291,-0.083C0.245,-0.083 0.229,-0.104 0.229,-0.149L0.229,-0.439L0.388,-0.439Z" style="fill:rgb(39,25,148);fill-rule:nonzero;"/>
                    </g>
                    <g transform="matrix(9.59529,0,0,9.59529,19.9832,-87.43)">
                        <path d="M0.288,0.015C0.417,0.015 0.497,-0.045 0.497,-0.141C0.497,-0.233 0.446,-0.272 0.329,-0.295L0.254,-0.31C0.187,-0.323 0.154,-0.339 0.154,-0.382C0.154,-0.43 0.193,-0.456 0.268,-0.456C0.362,-0.456 0.393,-0.417 0.402,-0.348L0.505,-0.348C0.498,-0.479 0.412,-0.537 0.269,-0.537C0.139,-0.537 0.06,-0.477 0.06,-0.381C0.06,-0.289 0.111,-0.25 0.227,-0.227L0.303,-0.212C0.369,-0.199 0.402,-0.183 0.402,-0.14C0.402,-0.092 0.363,-0.066 0.289,-0.066C0.194,-0.066 0.163,-0.105 0.156,-0.174L0.051,-0.174C0.058,-0.043 0.145,0.015 0.288,0.015Z" style="fill:rgb(39,25,148);fill-rule:nonzero;"/>
                    </g>
                    <g transform="matrix(9.59529,0,0,9.59529,-100.313,-78.1089)">
                        <path d="M0.343,-0.537C0.266,-0.537 0.199,-0.501 0.176,-0.433L0.176,-0.696L0.081,-0.696L0.081,-0L0.176,-0L0.176,-0.293C0.176,-0.393 0.228,-0.45 0.319,-0.45C0.405,-0.45 0.451,-0.405 0.451,-0.313L0.451,-0L0.546,-0L0.546,-0.323C0.546,-0.466 0.472,-0.537 0.343,-0.537Z" style="fill:rgb(39,25,148);fill-rule:nonzero;"/>
                    </g>
                    <g transform="matrix(9.59529,0,0,9.59529,-94.3927,-78.1089)">
                        <path d="M0.524,-0.522L0.389,-0.522L0.176,-0.309L0.176,-0.696L0.081,-0.696L0.081,-0L0.176,-0L0.176,-0.213L0.389,-0L0.524,-0L0.252,-0.262L0.524,-0.522Z" style="fill:rgb(39,25,148);fill-rule:nonzero;"/>
                    </g>
                    <g transform="matrix(9.59529,0,0,9.59529,-89.2112,-78.1089)">
                        <path d="M0.366,-0.537C0.28,-0.537 0.209,-0.501 0.176,-0.427L0.176,-0.696L0.081,-0.696L0.081,-0L0.176,-0L0.176,-0.095C0.209,-0.021 0.28,0.015 0.366,0.015C0.516,0.015 0.615,-0.095 0.615,-0.261C0.615,-0.427 0.516,-0.537 0.366,-0.537ZM0.344,-0.072C0.24,-0.072 0.176,-0.144 0.176,-0.261C0.176,-0.378 0.24,-0.45 0.344,-0.45C0.451,-0.45 0.515,-0.379 0.515,-0.261C0.515,-0.143 0.451,-0.072 0.344,-0.072Z" style="fill:rgb(39,25,148);fill-rule:nonzero;"/>
                    </g>
                    <g transform="matrix(9.59529,0,0,9.59529,-82.9167,-78.1089)">
                        <rect x="0.072" y="-0.137" width="0.128" height="0.137" style="fill:rgb(39,25,148);fill-rule:nonzero;"/>
                    </g>
                    <g transform="matrix(9.59529,0,0,9.59529,-80.3068,-78.1089)">
                        <path d="M0.366,-0.537C0.28,-0.537 0.209,-0.501 0.176,-0.427L0.176,-0.696L0.081,-0.696L0.081,-0L0.176,-0L0.176,-0.095C0.209,-0.021 0.28,0.015 0.366,0.015C0.516,0.015 0.615,-0.095 0.615,-0.261C0.615,-0.427 0.516,-0.537 0.366,-0.537ZM0.344,-0.072C0.24,-0.072 0.176,-0.144 0.176,-0.261C0.176,-0.378 0.24,-0.45 0.344,-0.45C0.451,-0.45 0.515,-0.379 0.515,-0.261C0.515,-0.143 0.451,-0.072 0.344,-0.072Z" style="fill:rgb(39,25,148);fill-rule:nonzero;"/>
                    </g>
                    <g transform="matrix(9.59529,0,0,9.59529,-74.1082,-78.1089)">
                        <path d="M0.304,-0.628L0.42,-0.628L0.42,-0.711L0.296,-0.711C0.197,-0.711 0.147,-0.657 0.147,-0.559L0.147,-0.522L0.01,-0.522L0.01,-0.439L0.147,-0.439L0.147,-0L0.241,-0L0.241,-0.439L0.42,-0.439L0.42,-0.522L0.241,-0.522L0.241,-0.562C0.241,-0.607 0.259,-0.628 0.304,-0.628Z" style="fill:rgb(39,25,148);fill-rule:nonzero;"/>
                    </g>
                    <g transform="matrix(9.59529,0,0,9.59529,-69.8863,-78.1089)">
                        <path d="M0.343,-0.537C0.266,-0.537 0.199,-0.501 0.176,-0.433L0.176,-0.696L0.081,-0.696L0.081,-0L0.176,-0L0.176,-0.293C0.176,-0.393 0.228,-0.45 0.319,-0.45C0.405,-0.45 0.451,-0.405 0.451,-0.313L0.451,-0L0.546,-0L0.546,-0.323C0.546,-0.466 0.472,-0.537 0.343,-0.537Z" style="fill:rgb(39,25,148);fill-rule:nonzero;"/>
                    </g>
                    <g transform="matrix(9.59529,0,0,9.59529,-63.966,-78.1089)">
                        <rect x="0.072" y="-0.137" width="0.128" height="0.137" style="fill:rgb(39,25,148);fill-rule:nonzero;"/>
                    </g>
                    <g transform="matrix(9.59529,0,0,9.59529,-61.3561,-78.1089)">
                        <path d="M0.314,0.015C0.451,0.015 0.538,-0.054 0.552,-0.174L0.45,-0.174C0.438,-0.108 0.386,-0.069 0.313,-0.069C0.206,-0.069 0.141,-0.14 0.141,-0.261C0.141,-0.383 0.206,-0.453 0.313,-0.453C0.386,-0.453 0.438,-0.414 0.45,-0.348L0.552,-0.348C0.538,-0.468 0.451,-0.537 0.314,-0.537C0.15,-0.537 0.041,-0.428 0.041,-0.261C0.041,-0.094 0.15,0.015 0.314,0.015Z" style="fill:rgb(39,25,148);fill-rule:nonzero;"/>
                    </g>
                    <g transform="matrix(9.59529,0,0,9.59529,-55.6277,-78.1089)">
                        <path d="M0.343,-0.537C0.266,-0.537 0.199,-0.501 0.176,-0.433L0.176,-0.696L0.081,-0.696L0.081,-0L0.176,-0L0.176,-0.293C0.176,-0.393 0.228,-0.45 0.319,-0.45C0.405,-0.45 0.451,-0.405 0.451,-0.313L0.451,-0L0.546,-0L0.546,-0.323C0.546,-0.466 0.472,-0.537 0.343,-0.537Z" style="fill:rgb(39,25,148);fill-rule:nonzero;"/>
                    </g>
                </g>
            </g>
        </g>
    </g>
</svg>
